# xmcd
#
# Track frame offsets: 
#        150
#        25655
#        47280
#        78145
#        100775
#        119888
#        138843
#        159703
#        179110
#        205233
#        227600
#        249058
#
# Disc length: 3513 seconds
#
# Revision: 2
# Processed by: cddbd v1.5.2PL0 Copyright (c) Steve Scherf et al.
# Submitted via: ExactAudioCopy v0.95b4
#
DISCID=920db70c
DTITLE=Various Artist - Modal Jazz Loves Disney
DYEAR=2008
DGENRE=Jazz
TTITLE0=Winnie the Pooh
TTITLE1=A Whole New World
TTITLE2=Main Street Electrical Parade
TTITLE3=Overture - The Jungle Book
TTITLE4=A Dream Is a Wish Your Heart Makes
TTITLE5=A Guy Like You
TTITLE6=Baby Mine
TTITLE7=When You Wish Upon a Star
TTITLE8=Love
TTITLE9=Some Day My Prince Will Come
TTITLE10=Beauty and the Beast
TTITLE11=Parte de Seu Mundo (Part of Your World)
EXTD=YEAR: 2008
EXTT0=
EXTT1=
EXTT2=
EXTT3=
EXTT4=
EXTT5=
EXTT6=
EXTT7=
EXTT8=
EXTT9=
EXTT10=
EXTT11=
PLAYORDER=
